<svg width="105" height="65" viewBox="0 0 105 65" fill="none" xmlns="http://www.w3.org/2000/svg">
<path fill-rule="evenodd" clip-rule="evenodd" d="M1.62364 0.105185L5.55332 2.44564L4.52991 4.16397L0.600228 1.82351L1.62364 0.105185ZM13.4127 7.12656L21.272 11.8075L20.2486 13.5258L12.3893 8.84488L13.4127 7.12656ZM29.1314 16.4884L36.9908 21.1693L35.9674 22.8876L28.108 18.2067L29.1314 16.4884ZM44.8501 25.8502L52.7095 30.5311L51.6861 32.2495L43.8267 27.5685L44.8501 25.8502ZM60.5689 35.212L68.4282 39.8929L67.4048 41.6113L59.5455 36.9304L60.5689 35.212ZM76.2876 44.5739L84.147 49.2548L83.1235 50.9731L75.2642 46.2922L76.2876 44.5739ZM94.8437 57.9534C94.7 58.3192 94.5974 58.7079 94.5423 59.1147C94.1715 61.8512 96.0893 64.37 98.8257 64.7408C101.562 65.1115 104.081 63.1938 104.452 60.4573C104.823 57.7209 102.905 55.202 100.168 54.8313C98.5474 54.6117 97.0027 55.1951 95.9358 56.276L92.0063 53.9357L90.9829 55.654L94.8437 57.9534Z" fill="#D9D9D9"/>
<path fill-rule="evenodd" clip-rule="evenodd" d="M1.62364 0.105185L5.55332 2.44564L4.52991 4.16397L0.600228 1.82351L1.62364 0.105185ZM13.4127 7.12656L21.272 11.8075L20.2486 13.5258L12.3893 8.84488L13.4127 7.12656ZM29.1314 16.4884L36.9908 21.1693L35.9674 22.8876L28.108 18.2067L29.1314 16.4884ZM44.8501 25.8502L52.7095 30.5311L51.6861 32.2495L43.8267 27.5685L44.8501 25.8502ZM60.5689 35.212L68.4282 39.8929L67.4048 41.6113L59.5455 36.9304L60.5689 35.212ZM76.2876 44.5739L84.147 49.2548L83.1235 50.9731L75.2642 46.2922L76.2876 44.5739ZM94.8437 57.9534C94.7 58.3192 94.5974 58.7079 94.5423 59.1147C94.1715 61.8512 96.0893 64.37 98.8257 64.7408C101.562 65.1115 104.081 63.1938 104.452 60.4573C104.823 57.7209 102.905 55.202 100.168 54.8313C98.5474 54.6117 97.0027 55.1951 95.9358 56.276L92.0063 53.9357L90.9829 55.654L94.8437 57.9534Z" fill="url(#paint0_linear_197_5)"/>
<defs>
<linearGradient id="paint0_linear_197_5" x1="-30.258" y1="1.95858" x2="-35.339" y2="41.9165" gradientUnits="userSpaceOnUse">
<stop stop-color="#A66AF2"/>
<stop offset="1" stop-color="#6122A5"/>
</linearGradient>
</defs>
</svg>
