<svg width="107" height="61" viewBox="0 0 107 61" fill="none" xmlns="http://www.w3.org/2000/svg">
<path fill-rule="evenodd" clip-rule="evenodd" d="M106.681 2.57338L102.647 4.72982L101.704 2.96606L105.738 0.809617L106.681 2.57338ZM94.58 9.0427L86.5128 13.3556L85.5698 11.5918L93.637 7.27894L94.58 9.0427ZM78.4456 17.6685L70.3784 21.9814L69.4354 20.2176L77.5026 15.9047L78.4456 17.6685ZM62.3112 26.2942L54.244 30.6071L53.3011 28.8434L61.3682 24.5305L62.3112 26.2942ZM46.1768 34.92L38.1096 39.2329L37.1667 37.4691L45.2339 33.1562L46.1768 34.92ZM30.0424 43.5458L21.9752 47.8586L21.0323 46.0949L29.0995 41.782L30.0424 43.5458ZM9.00221 52.5264C8.76319 52.2144 8.48331 51.9258 8.16342 51.6686C6.0116 49.9379 2.86424 50.2794 1.1336 52.4312C-0.597042 54.583 -0.255612 57.7304 1.89621 59.461C4.04803 61.1916 7.19539 60.8502 8.92603 58.6984C9.9512 57.4237 10.2493 55.7997 9.8747 54.3278L13.908 52.1715L12.9651 50.4078L9.00221 52.5264Z" fill="url(#paint0_linear_197_8)"/>
<defs>
<linearGradient id="paint0_linear_197_8" x1="121.558" y1="-25.6851" x2="89.9648" y2="-50.6713" gradientUnits="userSpaceOnUse">
<stop stop-color="#FF0E0E"/>
<stop offset="0.494792" stop-color="#6122A5"/>
<stop offset="0.971446" stop-color="#2C41F8"/>
</linearGradient>
</defs>
</svg>
