<svg width="112" height="52" viewBox="0 0 112 52" fill="none" xmlns="http://www.w3.org/2000/svg">
<path fill-rule="evenodd" clip-rule="evenodd" d="M0.542942 49.3007L4.75106 47.5085L5.53472 49.3486L1.3266 51.1408L0.542942 49.3007ZM13.1673 43.9241L21.5835 40.3398L22.3672 42.1799L13.9509 45.7642L13.1673 43.9241ZM29.9997 36.7554L38.416 33.1711L39.1996 35.0111L30.7834 38.5955L29.9997 36.7554ZM46.8322 29.5867L55.2484 26.0023L56.0321 27.8424L47.6159 31.4268L46.8322 29.5867ZM63.6647 22.418L72.0809 18.8336L72.8646 20.6737L64.4483 24.258L63.6647 22.418ZM80.4971 15.2493L88.9133 11.6649L89.697 13.505L81.2808 17.0893L80.4971 15.2493ZM102.248 8.15984C102.458 8.49168 102.711 8.80383 103.007 9.08833C104.998 11.0021 108.163 10.9396 110.077 8.94887C111.991 6.95812 111.928 3.79291 109.938 1.87918C107.947 -0.0345533 104.782 0.0278844 102.868 2.01863C101.734 3.19788 101.294 4.78924 101.537 6.28846L97.3296 8.08053L98.1132 9.92061L102.248 8.15984Z" fill="#D9D9D9"/>
<path fill-rule="evenodd" clip-rule="evenodd" d="M0.542942 49.3007L4.75106 47.5085L5.53472 49.3486L1.3266 51.1408L0.542942 49.3007ZM13.1673 43.9241L21.5835 40.3398L22.3672 42.1799L13.9509 45.7642L13.1673 43.9241ZM29.9997 36.7554L38.416 33.1711L39.1996 35.0111L30.7834 38.5955L29.9997 36.7554ZM46.8322 29.5867L55.2484 26.0023L56.0321 27.8424L47.6159 31.4268L46.8322 29.5867ZM63.6647 22.418L72.0809 18.8336L72.8646 20.6737L64.4483 24.258L63.6647 22.418ZM80.4971 15.2493L88.9133 11.6649L89.697 13.505L81.2808 17.0893L80.4971 15.2493ZM102.248 8.15984C102.458 8.49168 102.711 8.80383 103.007 9.08833C104.998 11.0021 108.163 10.9396 110.077 8.94887C111.991 6.95812 111.928 3.79291 109.938 1.87918C107.947 -0.0345533 104.782 0.0278844 102.868 2.01863C101.734 3.19788 101.294 4.78924 101.537 6.28846L97.3296 8.08053L98.1132 9.92061L102.248 8.15984Z" fill="url(#paint0_linear_197_2)"/>
<defs>
<linearGradient id="paint0_linear_197_2" x1="-16.7695" y1="76.1364" x2="12.4964" y2="103.812" gradientUnits="userSpaceOnUse">
<stop stop-color="#A66AF2"/>
<stop offset="1" stop-color="#6122A5"/>
</linearGradient>
</defs>
</svg>
